<svg width="188" height="94" viewBox="0 0 188 94" fill="none" xmlns="http://www.w3.org/2000/svg">
<circle cx="47" cy="47" r="47" fill="#F7B646"/>
<mask id="mask0_452_9" style="mask-type:alpha" maskUnits="userSpaceOnUse" x="47" y="0" width="50" height="89">
<rect x="97" y="89" width="50" height="89" transform="rotate(180 97 89)" fill="#D9D9D9"/>
</mask>
<g mask="url(#mask0_452_9)">
<circle cx="47" cy="47" r="35" transform="rotate(180 47 47)" stroke="#202A63" stroke-width="8"/>
</g>
<path d="M44.5953 60V38H40.7953L42.3953 32H50.5953V60H44.5953Z" fill="#202A63"/>
<g clip-path="url(#clip0_452_9)">
<path d="M165.6 15.2282H145.138C144.48 15.2282 143.941 14.6971 143.941 14.0349C143.941 13.3726 144.474 12.8416 145.138 12.8416H165.6C166.259 12.8416 166.798 13.3726 166.798 14.0349C166.798 14.6971 166.265 15.2282 165.6 15.2282Z" fill="#262B62"/>
<path d="M129.693 48.222C129.035 48.222 128.495 47.6909 128.495 47.0287V12.4355C128.495 9.43658 130.941 7 133.951 7H176.781C179.791 7 182.237 9.43658 182.237 12.4355V32.9527C182.237 33.6087 181.704 34.146 181.039 34.146C180.375 34.146 179.842 33.615 179.842 32.9527V12.4355C179.842 10.7548 178.468 9.3866 176.781 9.3866H133.957C132.27 9.3866 130.897 10.7548 130.897 12.4355V47.0287C130.897 47.6847 130.364 48.222 129.699 48.222H129.693Z" fill="#262B62"/>
<path d="M176.781 90H133.957C130.947 90 128.502 87.5634 128.502 84.5645V76.8112C128.502 76.1552 129.035 75.6179 129.699 75.6179C130.364 75.6179 130.897 76.1489 130.897 76.8112V84.5645C130.897 86.2452 132.271 87.6134 133.957 87.6134H176.781C178.468 87.6134 179.842 86.2452 179.842 84.5645V75.9865C179.842 75.3305 180.375 74.7932 181.039 74.7932C181.704 74.7932 182.237 75.3243 182.237 75.9865V84.5645C182.237 87.5634 179.791 90 176.781 90Z" fill="#262B62"/>
<path d="M137.174 45.2356C136.516 45.2356 135.977 44.7046 135.977 44.0423V20.7573C135.977 20.1013 136.51 19.564 137.174 19.564H173.552C174.21 19.564 174.75 20.0951 174.75 20.7573V32.9465C174.75 33.6025 174.217 34.1398 173.552 34.1398C172.887 34.1398 172.354 33.6087 172.354 32.9465V21.9506H138.372V44.0486C138.372 44.7046 137.839 45.2419 137.174 45.2419V45.2356Z" fill="#262B62"/>
<path d="M168.648 71.2071H137.174C136.516 71.2071 135.977 70.676 135.977 70.0138V62.9039C135.977 62.2479 136.51 61.7106 137.174 61.7106C137.839 61.7106 138.372 62.2417 138.372 62.9039V68.8205H168.648C169.306 68.8205 169.846 69.3515 169.846 70.0138C169.846 70.676 169.313 71.2071 168.648 71.2071Z" fill="#262B62"/>
<path d="M155.366 85.0831C152.187 85.0831 149.603 82.5091 149.603 79.3415C149.603 76.1739 152.187 73.5999 155.366 73.5999C158.546 73.5999 161.129 76.1739 161.129 79.3415C161.129 82.5091 158.546 85.0831 155.366 85.0831ZM155.366 75.9865C153.51 75.9865 151.999 77.4922 151.999 79.3415C151.999 81.1908 153.51 82.6965 155.366 82.6965C157.222 82.6965 158.734 81.1908 158.734 79.3415C158.734 77.4922 157.222 75.9865 155.366 75.9865Z" fill="#262B62"/>
<path d="M180.092 49.359H170.178C166.76 49.359 163.982 46.5913 163.982 43.1863C163.982 39.7814 166.76 37.0137 170.178 37.0137H180.092C183.51 37.0137 186.288 39.7814 186.288 43.1863C186.288 46.5913 183.51 49.359 180.092 49.359ZM170.178 39.4003C168.084 39.4003 166.378 41.0996 166.378 43.1863C166.378 45.2731 168.084 46.9724 170.178 46.9724H180.092C182.187 46.9724 183.893 45.2731 183.893 43.1863C183.893 41.0996 182.187 39.4003 180.092 39.4003H170.178Z" fill="#262B62"/>
<path d="M181.804 59.3178H171.037C167.62 59.3178 164.842 56.5501 164.842 53.1451C164.842 49.7401 167.62 46.9724 171.037 46.9724H181.804C185.222 46.9724 188 49.7401 188 53.1451C188 56.5501 185.222 59.3178 181.804 59.3178ZM171.037 49.359C168.943 49.359 167.237 51.0584 167.237 53.1451C167.237 55.2318 168.943 56.9312 171.037 56.9312H181.804C183.899 56.9312 185.605 55.2318 185.605 53.1451C185.605 51.0584 183.899 49.359 181.804 49.359H171.037Z" fill="#262B62"/>
<path d="M180.945 69.2765H171.031C167.613 69.2765 164.835 66.5088 164.835 63.1038C164.835 59.6989 167.613 56.9312 171.031 56.9312H180.945C184.363 56.9312 187.141 59.6989 187.141 63.1038C187.141 66.5088 184.363 69.2765 180.945 69.2765ZM171.031 59.3178C168.936 59.3178 167.231 61.0171 167.231 63.1038C167.231 65.1905 168.936 66.8899 171.031 66.8899H180.945C183.04 66.8899 184.745 65.1905 184.745 63.1038C184.745 61.0171 183.04 59.3178 180.945 59.3178H171.031Z" fill="#262B62"/>
<path d="M179.729 77.3984H172.11C169.206 77.3984 166.842 75.0431 166.842 72.1442C166.842 69.2453 169.206 66.8899 172.11 66.8899H179.729C182.632 66.8899 185.003 69.2453 185.003 72.1442C185.003 75.0431 182.638 77.3984 179.729 77.3984ZM172.11 69.2765C170.523 69.2765 169.231 70.5635 169.231 72.1442C169.231 73.7248 170.523 75.0118 172.11 75.0118H179.729C181.315 75.0118 182.607 73.7248 182.607 72.1442C182.607 70.5635 181.315 69.2765 179.729 69.2765H172.11Z" fill="#262B62"/>
<path d="M120.889 89.5189C120.744 89.5189 120.6 89.4939 120.462 89.4377C120.111 89.3003 119.841 89.0129 119.741 88.6505L117.452 80.641C117.27 80.01 117.64 79.3478 118.274 79.1666C118.907 78.9854 119.572 79.354 119.754 79.985L121.61 86.4701L128.508 82.1717V76.8112C128.508 76.4988 128.633 76.1989 128.853 75.974C128.909 75.9115 134.961 69.5639 138.454 54.1322C138.548 53.7262 138.842 53.395 139.244 53.2638C147.622 50.4774 150.719 45.0857 150.243 42.143C150.092 41.2309 149.641 40.731 148.901 40.6561L127.586 49.1529C123.61 50.6773 125.147 58.7618 125.88 62.6415C126.006 63.3038 126.112 63.8786 126.181 64.3284C126.282 64.9657 125.843 65.5717 125.203 65.6841C124.563 65.7966 123.949 65.378 123.823 64.7408L123.121 61.2233L115.615 65.4967L117.22 71.1071C117.402 71.7381 117.032 72.4004 116.399 72.5816C115.765 72.7627 115.101 72.3941 114.919 71.7631L113.044 65.2656C112.893 64.7408 113.125 64.1785 113.602 63.9036L122.783 58.6743C122.206 54.001 122.375 48.5968 126.696 46.9412L148.236 38.3569C148.38 38.3007 148.531 38.2695 148.681 38.2695C150.713 38.2695 152.25 39.644 152.594 41.7682C153.297 46.0665 149.334 52.1892 140.636 55.3068C137.406 69.0891 132.277 75.6866 130.897 77.2735V82.8339C130.897 83.2463 130.684 83.6274 130.333 83.8461L121.522 89.3377C121.328 89.4564 121.108 89.5189 120.889 89.5189Z" fill="#262B62"/>
</g>
<defs>
<clipPath id="clip0_452_9">
<rect width="75" height="83" fill="white" transform="translate(113 7)"/>
</clipPath>
</defs>
</svg>
