<svg width="197" height="94" viewBox="0 0 197 94" fill="none" xmlns="http://www.w3.org/2000/svg">
<circle cx="47" cy="47" r="47" fill="#75A3F3"/>
<path d="M36.3813 60V54.64C37.1279 54.1733 38.0613 53.5267 39.1813 52.7C40.3013 51.86 41.4746 50.92 42.7013 49.88C43.9413 48.84 45.0946 47.7867 46.1613 46.72C47.2413 45.64 48.1213 44.62 48.8013 43.66C49.4813 42.6867 49.8213 41.8667 49.8213 41.2C49.8213 40.52 49.6546 39.9 49.3213 39.34C48.9879 38.7667 48.5413 38.3133 47.9813 37.98C47.4346 37.6467 46.8213 37.48 46.1413 37.48C45.4613 37.48 44.8413 37.6467 44.2813 37.98C43.7213 38.3133 43.2679 38.7667 42.9213 39.34C42.5879 39.9 42.4213 40.52 42.4213 41.2H36.4213C36.4213 39.36 36.8679 37.7067 37.7613 36.24C38.6546 34.7733 39.8346 33.6133 41.3013 32.76C42.7813 31.9067 44.3946 31.48 46.1413 31.48C47.9146 31.48 49.5346 31.9133 51.0013 32.78C52.4679 33.6467 53.6346 34.82 54.5013 36.3C55.3813 37.7667 55.8213 39.4 55.8213 41.2C55.8213 42.0933 55.7013 42.9467 55.4613 43.76C55.2213 44.56 54.8679 45.3533 54.4013 46.14C53.9479 46.9133 53.3813 47.7067 52.7013 48.52C52.0213 49.3333 51.2346 50.1933 50.3413 51.1C49.4613 51.9933 48.4879 52.96 47.4213 54H55.8213V60H36.3813Z" fill="#202A63"/>
<mask id="mask0_452_10" style="mask-type:alpha" maskUnits="userSpaceOnUse" x="47" y="0" width="50" height="89">
<rect x="97" y="89" width="50" height="89" transform="rotate(180 97 89)" fill="#D9D9D9"/>
</mask>
<g mask="url(#mask0_452_10)">
<circle cx="47" cy="47" r="35" transform="rotate(180 47 47)" stroke="white" stroke-width="8"/>
</g>
<g clip-path="url(#clip0_452_10)">
<path d="M152.552 62.3735C152.39 62.3735 152.228 62.3483 152.072 62.2853C151.348 62.0147 150.973 61.209 151.235 60.4725C151.897 58.6345 152.633 56.891 153.42 55.2796C154.93 52.1827 156.653 49.5201 158.538 47.38C159.05 46.7946 159.936 46.7443 160.517 47.2604C161.097 47.7765 161.147 48.6704 160.635 49.2558C158.913 51.207 157.333 53.6493 155.935 56.5196C155.193 58.0429 154.5 59.6983 153.869 61.4356C153.663 62.0084 153.127 62.3672 152.552 62.3672V62.3735Z" fill="#262B62"/>
<path d="M183.306 78.3174C182.775 78.3174 182.269 78.009 182.032 77.4929C181.708 76.7816 182.02 75.9444 182.719 75.6171L194.004 70.3927C193.186 66.6223 189.928 53.7437 182.313 47.2604C181.72 46.7569 181.645 45.8693 182.145 45.2714C182.644 44.6734 183.53 44.5978 184.117 45.1014C193.842 53.3787 196.85 70.2542 196.975 70.9655C197.087 71.5949 196.757 72.2244 196.182 72.495L183.886 78.1853C183.699 78.2734 183.499 78.3174 183.306 78.3174Z" fill="#262B62"/>
<path d="M172.295 46.7568C165.361 46.7568 159.949 38.9705 157.858 31.7382C157.639 30.9891 158.064 30.2086 158.813 29.9883C159.556 29.768 160.33 30.2023 160.548 30.9513C162.371 37.2458 167.108 43.9369 172.295 43.9369C178.98 43.9369 184.523 33.2866 184.854 26.3815C184.891 25.601 185.546 25.0156 186.32 25.0408C187.094 25.0786 187.687 25.7395 187.65 26.52C187.269 34.5833 180.946 46.7694 172.295 46.7694V46.7568Z" fill="#262B62"/>
<path d="M156.36 33.0852C155.761 33.0852 155.224 32.7012 155.037 32.1221C154.512 30.5548 153.95 27.8482 153.95 24.9464C153.944 14.5039 162.371 6 172.726 6C182.532 6 190.758 13.7233 191.457 23.5868C191.476 23.8386 191.426 24.0967 191.314 24.3233C189.379 28.2133 181.233 29.2519 179.617 29.4218C179.155 29.4722 178.705 29.2896 178.406 28.9371C178.106 28.5846 178 28.1063 178.119 27.6531C178.119 27.6468 178.412 26.5012 178.593 24.3925C173.287 29.0064 162.539 32.7831 156.422 33.0852C156.397 33.0852 156.378 33.0852 156.354 33.0852H156.36ZM172.726 8.82623C163.912 8.82623 156.741 16.0586 156.741 24.9527C156.741 26.9292 157.04 28.8175 157.377 30.1709C163.107 29.5351 172.339 26.1424 176.827 22.1957C177.825 21.3145 178.524 20.4522 178.843 19.6968C179.099 19.08 179.754 18.7401 180.403 18.8659C181.052 18.9981 181.527 19.5646 181.533 20.2318C181.545 21.4089 181.52 22.5671 181.452 23.6686C181.389 24.7324 181.289 25.6262 181.19 26.3438C184.148 25.8151 187.562 24.745 188.617 23.3476C187.812 15.1711 180.915 8.82623 172.719 8.82623H172.726Z" fill="#262B62"/>
<path d="M161.397 90C156.666 90 140.275 88.4327 127.978 68.2462C121.106 56.9602 120.519 45.9511 121.231 38.6999C121.974 31.1528 124.483 24.6632 126.268 23.5553L134.414 18.5072C135.294 17.9595 136.311 17.67 137.341 17.67C139.289 17.67 141.13 18.7023 142.147 20.3703C142.185 20.4333 142.216 20.4962 142.247 20.5654L147.59 33.3747C149.132 36.0247 148.289 39.4552 145.686 41.0729L139.338 45.007C138.458 45.5546 137.447 45.8378 136.411 45.8378C136.143 45.8378 135.88 45.819 135.618 45.7812C135.537 48.727 135.843 55.0026 139.301 60.674C142.859 66.5152 148.445 69.4422 150.986 70.5374C151.366 69.5807 152.034 68.4414 153.176 67.7301L159.524 63.796C160.404 63.2484 161.422 62.9589 162.452 62.9589C164.399 62.9589 166.172 63.9345 167.208 65.5774L175.778 76.4102C175.815 76.4542 175.847 76.5046 175.878 76.5487C177.501 79.2112 176.671 82.711 174.03 84.3475L166.241 89.1691C165.423 89.6727 163.613 89.9748 161.397 89.9748V90ZM127.785 25.9347C125.8 27.8734 118.647 47.5311 130.363 66.767C141.891 85.7009 157.028 87.1738 161.391 87.1738C163.55 87.1738 164.624 86.859 164.792 86.7709L172.557 81.9619C173.862 81.1562 174.286 79.4441 173.525 78.116L164.967 67.2895C164.93 67.2454 164.899 67.195 164.867 67.151C164.349 66.3012 163.45 65.7977 162.452 65.7977C161.934 65.7977 161.428 65.9424 160.985 66.2131L154.637 70.1472C153.763 70.6885 153.364 72.1236 153.283 72.6272C153.22 73.03 152.983 73.3888 152.64 73.6091C152.296 73.8232 151.872 73.8861 151.485 73.7602C151.104 73.6406 142.147 70.7703 136.904 62.1595C131.674 53.5738 132.891 44.1006 132.947 43.6977C133.009 43.2382 133.296 42.8354 133.708 42.6276C134.12 42.4199 134.607 42.4325 135.013 42.6528C135.437 42.892 135.918 43.0179 136.405 43.0179C136.923 43.0179 137.428 42.8731 137.865 42.6025L144.213 38.6684C145.537 37.8501 145.955 36.094 145.137 34.7532C145.1 34.6903 145.068 34.6273 145.037 34.5644L139.7 21.774C139.182 20.9872 138.284 20.5025 137.335 20.5025C136.817 20.5025 136.311 20.6473 135.868 20.9179L127.772 25.9347H127.785Z" fill="#262B62"/>
<path d="M155.498 79.7211C155.03 79.7211 154.568 79.4819 154.306 79.0476L150.717 73.1496C150.311 72.4824 150.517 71.6138 151.179 71.2046C151.834 70.8018 152.702 71.0032 153.108 71.6704L156.697 77.5683C157.103 78.2356 156.897 79.1042 156.235 79.5133C156.004 79.6518 155.754 79.7211 155.505 79.7211H155.498Z" fill="#262B62"/>
<path d="M134.482 45.2147C134.014 45.2147 133.552 44.9755 133.29 44.5412L129.695 38.6433C129.289 37.976 129.495 37.1074 130.157 36.6983C130.818 36.2891 131.68 36.4968 132.086 37.164L135.681 43.062C136.087 43.7292 135.881 44.5978 135.219 45.007C134.988 45.1518 134.738 45.2147 134.489 45.2147H134.482Z" fill="#262B62"/>
</g>
<defs>
<clipPath id="clip0_452_10">
<rect width="76" height="84" fill="white" transform="translate(121 6)"/>
</clipPath>
</defs>
</svg>
