<svg width="200" height="94" viewBox="0 0 200 94" fill="none" xmlns="http://www.w3.org/2000/svg">
<circle cx="47" cy="47" r="47" fill="#F7B646"/>
<path d="M46.4908 60.52C44.8108 60.52 43.2708 60.1067 41.8708 59.28C40.4708 58.4533 39.3508 57.34 38.5108 55.94C37.6708 54.54 37.2508 52.9867 37.2508 51.28H43.2508C43.2508 51.8667 43.3974 52.4067 43.6908 52.9C43.9841 53.3933 44.3774 53.7867 44.8708 54.08C45.3641 54.3733 45.9041 54.52 46.4908 54.52C47.0774 54.52 47.6174 54.3733 48.1108 54.08C48.6041 53.7867 48.9974 53.3933 49.2908 52.9C49.5841 52.4067 49.7308 51.8667 49.7308 51.28C49.7308 50.4667 49.5041 49.7933 49.0508 49.26C48.5974 48.7133 47.9574 48.3067 47.1308 48.04C46.3174 47.7733 45.3574 47.64 44.2508 47.64V43.08C45.7174 43.08 46.8708 42.8333 47.7108 42.34C48.5508 41.8333 48.9708 41.08 48.9708 40.08C48.9708 39.6 48.8508 39.16 48.6108 38.76C48.3841 38.36 48.0708 38.04 47.6708 37.8C47.2841 37.56 46.8508 37.44 46.3708 37.44C45.8774 37.44 45.3908 37.56 44.9108 37.8C44.4308 38.04 44.0308 38.36 43.7108 38.76C43.4041 39.16 43.2508 39.6 43.2508 40.08H37.2508C37.2508 38.8933 37.4908 37.78 37.9708 36.74C38.4641 35.6867 39.1308 34.7667 39.9708 33.98C40.8241 33.18 41.7908 32.56 42.8708 32.12C43.9641 31.6667 45.1041 31.44 46.2908 31.44C47.8508 31.44 49.2908 31.8267 50.6108 32.6C51.9308 33.3733 52.9841 34.4133 53.7708 35.72C54.5708 37.0267 54.9708 38.48 54.9708 40.08C54.9708 41.0133 54.7708 41.98 54.3708 42.98C53.9708 43.98 53.3708 44.6933 52.5708 45.12C53.2641 45.3867 53.8441 45.86 54.3108 46.54C54.7774 47.2067 55.1308 47.9667 55.3708 48.82C55.6108 49.66 55.7308 50.48 55.7308 51.28C55.7308 52.9733 55.3108 54.52 54.4708 55.92C53.6441 57.32 52.5308 58.44 51.1308 59.28C49.7308 60.1067 48.1841 60.52 46.4908 60.52Z" fill="#202A63"/>
<mask id="mask0_452_11" style="mask-type:alpha" maskUnits="userSpaceOnUse" x="47" y="0" width="50" height="89">
<rect x="97" y="89" width="50" height="89" transform="rotate(180 97 89)" fill="#D9D9D9"/>
</mask>
<g mask="url(#mask0_452_11)">
<circle cx="47" cy="47" r="35" transform="rotate(180 47 47)" stroke="#202A63" stroke-width="8"/>
</g>
<g clip-path="url(#clip0_452_11)">
<path d="M198.49 87H123.51C122.674 87 122 86.3282 122 85.4946V21.3106C122 20.477 122.674 19.8052 123.51 19.8052H186.649C187.485 19.8052 188.158 20.477 188.158 21.3106C188.158 22.1441 187.485 22.8159 186.649 22.8159H125.02V83.9892H196.98V21.3106C196.98 20.477 197.654 19.8052 198.49 19.8052C199.326 19.8052 200 20.477 200 21.3106V85.4946C200 86.3282 199.326 87 198.49 87Z" fill="#262B62"/>
<path d="M198.49 22.8159C198.216 22.8159 197.935 22.7413 197.685 22.5858L180.865 12.0108H139.887L124.358 22.5547C123.666 23.0212 122.73 22.847 122.262 22.1566C121.794 21.4723 121.969 20.533 122.661 20.0664L138.571 9.26126C138.82 9.09331 139.12 9 139.419 9H181.302C181.589 9 181.863 9.08087 182.107 9.23016L199.295 20.0353C200 20.477 200.212 21.4101 199.769 22.113C199.482 22.5671 198.989 22.8159 198.49 22.8159Z" fill="#262B62"/>
<path d="M166.628 33.167H155.379C154.543 33.167 153.869 32.4952 153.869 31.6616V21.3106C153.869 20.477 154.543 19.8052 155.379 19.8052H166.628C167.464 19.8052 168.137 20.477 168.137 21.3106V31.6554C168.137 32.489 167.464 33.1608 166.628 33.1608V33.167ZM156.889 30.1562H165.118V22.8222H156.889V30.1562Z" fill="#262B62"/>
<path d="M166.64 22.8159C166.64 22.8159 166.634 22.8159 166.628 22.8159H155.379C154.905 22.8159 154.455 22.592 154.168 22.2125C153.881 21.8331 153.794 21.3417 153.931 20.8813L157.132 10.0824C157.319 9.44166 157.912 9 158.579 9H163.951C164.644 9 165.249 9.47276 165.417 10.1446L168.05 20.7694C168.113 20.9373 168.15 21.1239 168.15 21.3106C168.15 22.1441 167.476 22.8159 166.64 22.8159ZM157.4 19.8052H164.7L162.766 12.0108H159.709L157.4 19.8052Z" fill="#262B62"/>
<path d="M190.011 78.9817H163.446C162.61 78.9817 161.936 78.3098 161.936 77.4763C161.936 76.6427 162.61 75.9709 163.446 75.9709H190.011C190.847 75.9709 191.521 76.6427 191.521 77.4763C191.521 78.3098 190.847 78.9817 190.011 78.9817Z" fill="#262B62"/>
<path d="M185.395 73.2339C184.559 73.2339 183.885 72.5621 183.885 71.7285V54.4975C183.885 53.8754 184.272 53.3155 184.858 53.0916C185.445 52.8677 186.106 53.0294 186.524 53.4959L192.282 59.9218C192.838 60.5439 192.782 61.4956 192.164 62.0493C191.54 62.6029 190.585 62.5469 190.03 61.9311L186.904 58.4475V71.7347C186.904 72.5683 186.231 73.2401 185.395 73.2401V73.2339Z" fill="#262B62"/>
<path d="M179.767 62.8392C179.43 62.8392 179.093 62.7273 178.812 62.4971C178.17 61.9684 178.07 61.0228 178.6 60.3759L184.222 53.5395C184.752 52.8987 185.7 52.7992 186.349 53.328C186.992 53.8567 187.092 54.8022 186.561 55.4492L180.94 62.2856C180.64 62.6464 180.21 62.8392 179.773 62.8392H179.767Z" fill="#262B62"/>
<path d="M168.156 73.2339C167.32 73.2339 166.646 72.5621 166.646 71.7285V54.4975C166.646 53.8754 167.033 53.3155 167.62 53.0916C168.206 52.8677 168.867 53.0294 169.285 53.4959L175.044 59.9218C175.599 60.5439 175.543 61.4956 174.925 62.0493C174.301 62.6029 173.347 62.5469 172.792 61.9311L169.666 58.4475V71.7347C169.666 72.5683 168.992 73.2401 168.156 73.2401V73.2339Z" fill="#262B62"/>
<path d="M162.528 62.8392C162.192 62.8392 161.855 62.7273 161.574 62.4971C160.931 61.9684 160.831 61.0228 161.362 60.3759L166.983 53.5395C167.513 52.8987 168.462 52.7992 169.111 53.328C169.753 53.8567 169.853 54.8022 169.323 55.4492L163.701 62.2856C163.402 62.6464 162.971 62.8392 162.535 62.8392H162.528Z" fill="#262B62"/>
</g>
<defs>
<clipPath id="clip0_452_11">
<rect width="78" height="78" fill="white" transform="translate(122 9)"/>
</clipPath>
</defs>
</svg>
