<svg width="193" height="94" viewBox="0 0 193 94" fill="none" xmlns="http://www.w3.org/2000/svg">
<circle cx="47" cy="47" r="47" fill="#75A3F3"/>
<path d="M48.0064 60V53.8H36.1664V47.8L46.6464 32H54.0064V47.8H56.0464V53.8H54.0064V60H48.0064ZM43.0864 47.8H48.0064V40.08L43.0864 47.8Z" fill="#202A63"/>
<mask id="mask0_452_14" style="mask-type:alpha" maskUnits="userSpaceOnUse" x="47" y="0" width="50" height="89">
<rect x="97" y="89" width="50" height="89" transform="rotate(180 97 89)" fill="#D9D9D9"/>
</mask>
<g mask="url(#mask0_452_14)">
<circle cx="47" cy="47" r="35" transform="rotate(180 47 47)" stroke="white" stroke-width="8"/>
</g>
<g clip-path="url(#clip0_452_14)">
<path d="M187.083 38.8276C186.305 38.8276 185.676 38.1949 185.676 37.4118V24.0935C185.676 21.7568 183.785 19.8524 181.464 19.8524H172.896C172.118 19.8524 171.489 19.2197 171.489 18.4367C171.489 17.6536 172.118 17.0209 172.896 17.0209H181.464C185.334 17.0209 188.483 20.1907 188.483 24.0872V37.4056C188.483 38.1886 187.854 38.8213 187.076 38.8213L187.083 38.8276Z" fill="#262B62"/>
<path d="M181.464 89H124.019C120.149 89 117 85.8302 117 81.9337V23.9808C117 20.1469 120.149 17.0334 124.019 17.0334H132.587C133.365 17.0334 133.993 17.6662 133.993 18.4492C133.993 19.2323 133.365 19.865 132.587 19.865H124.019C121.698 19.865 119.806 21.713 119.806 23.987V81.9337C119.806 84.2703 121.698 86.1748 124.019 86.1748H181.464C183.785 86.1748 185.676 84.2703 185.676 81.9337V46.5706C185.676 45.7875 186.305 45.1548 187.083 45.1548C187.86 45.1548 188.489 45.7875 188.489 46.5706V81.9274C188.489 85.8239 185.34 88.9938 181.47 88.9938L181.464 89Z" fill="#262B62"/>
<path d="M172.958 25.6346H132.531C131.753 25.6346 131.125 25.0018 131.125 24.2188V19.2448C131.125 15.4735 134.174 12.4039 137.92 12.4039H144.098C144.876 12.4039 145.505 13.0366 145.505 13.8197C145.505 14.6028 144.876 15.2355 144.098 15.2355H137.92C135.723 15.2355 133.931 17.0334 133.931 19.251V22.8093H171.551V19.251C171.551 17.0397 169.766 15.2355 167.563 15.2355H162.056C161.278 15.2355 160.65 14.6028 160.65 13.8197C160.65 13.0366 161.278 12.4039 162.056 12.4039H167.563C171.309 12.4039 174.358 15.4735 174.358 19.2448V24.2188C174.358 25.0018 173.729 25.6346 172.952 25.6346H172.958Z" fill="#262B62"/>
<path d="M157.682 19.6457H148.473C145.287 19.6457 142.692 17.0334 142.692 13.826C142.692 10.6186 145.287 8 148.479 8H157.688C160.88 8 163.475 10.6123 163.475 13.8197C163.475 17.0271 160.88 19.6394 157.688 19.6394L157.682 19.6457ZM148.473 10.8253C146.83 10.8253 145.498 12.1722 145.498 13.8197C145.498 15.4673 146.836 16.8142 148.473 16.8142H157.682C159.325 16.8142 160.656 15.4673 160.656 13.8197C160.656 12.1722 159.318 10.8253 157.682 10.8253H148.473Z" fill="#262B62"/>
<path d="M150.209 74.8171C150.209 74.8171 150.146 74.8171 150.122 74.8171C149.73 74.7921 149.362 74.5979 149.114 74.2846L131.436 51.9705C130.95 51.3628 131.05 50.4733 131.66 49.9846C132.263 49.496 133.147 49.5962 133.632 50.2101L150.346 71.309L190.623 31.993C191.183 31.448 192.067 31.4668 192.608 32.0243C193.149 32.5818 193.137 33.4777 192.577 34.0227L151.186 74.4162C150.924 74.673 150.57 74.8171 150.209 74.8171Z" fill="#262B62"/>
</g>
<defs>
<clipPath id="clip0_452_14">
<rect width="76" height="81" fill="white" transform="translate(117 8)"/>
</clipPath>
</defs>
</svg>
