<svg width="203" height="94" viewBox="0 0 203 94" fill="none" xmlns="http://www.w3.org/2000/svg">
<circle cx="47" cy="47" r="47" fill="#F7B646"/>
<path d="M46.0213 60.52C44.1679 60.52 42.4946 60.0733 41.0013 59.18C39.5213 58.2733 38.3479 57.08 37.4813 55.6C36.6146 54.1067 36.1813 52.48 36.1813 50.72H42.1813C42.1813 51.4267 42.3546 52.0667 42.7013 52.64C43.0479 53.2133 43.5079 53.6733 44.0813 54.02C44.6679 54.3533 45.3146 54.52 46.0213 54.52C46.7146 54.52 47.3479 54.3533 47.9213 54.02C48.4946 53.6733 48.9546 53.2133 49.3013 52.64C49.6479 52.0667 49.8213 51.4267 49.8213 50.72C49.8213 50.0133 49.6813 49.3667 49.4013 48.78C49.1346 48.18 48.6413 47.7 47.9213 47.34C47.2146 46.98 46.1946 46.8 44.8613 46.8H37.4613L40.5813 32H54.7013V38H45.4613L44.8613 40.8L46.1413 40.84C48.0346 40.92 49.7079 41.4067 51.1613 42.3C52.6146 43.1933 53.7546 44.3733 54.5813 45.84C55.4079 47.3067 55.8213 48.9333 55.8213 50.72C55.8213 52.0533 55.5679 53.3133 55.0613 54.5C54.5546 55.6867 53.8546 56.7333 52.9613 57.64C52.0679 58.5333 51.0279 59.24 49.8413 59.76C48.6546 60.2667 47.3813 60.52 46.0213 60.52Z" fill="#202A63"/>
<mask id="mask0_452_13" style="mask-type:alpha" maskUnits="userSpaceOnUse" x="47" y="0" width="50" height="89">
<rect x="97" y="89" width="50" height="89" transform="rotate(180 97 89)" fill="#D9D9D9"/>
</mask>
<g mask="url(#mask0_452_13)">
<circle cx="47" cy="47" r="35" transform="rotate(180 47 47)" stroke="#202A63" stroke-width="8"/>
</g>
<g clip-path="url(#clip0_452_13)">
<path d="M168.134 89.0002C167.815 89.0002 167.509 88.894 167.26 88.6941L158.359 81.5672L148.134 86.6204C147.784 86.7952 147.372 86.814 147.009 86.6703C146.641 86.5267 146.354 86.2393 146.21 85.8771L142.062 75.2523L130.682 74.5152C130.288 74.4902 129.926 74.3029 129.682 73.9968C129.439 73.6907 129.333 73.2972 129.389 72.91L131.107 61.6356L121.625 55.302C121.3 55.0833 121.081 54.7398 121.019 54.3525C120.957 53.9653 121.063 53.5718 121.306 53.2657L128.433 44.3586L123.38 34.1336C123.205 33.7838 123.186 33.3716 123.33 33.0093C123.474 32.6408 123.761 32.3534 124.123 32.2098L134.748 28.0623L135.485 16.6818C135.51 16.2882 135.698 15.926 136.004 15.6824C136.31 15.4388 136.703 15.3326 137.09 15.3888L148.365 17.1127L154.698 7.62478C154.917 7.29998 155.261 7.08136 155.648 7.0189C156.035 6.95644 156.429 7.06262 156.735 7.30622L165.636 14.4331L175.867 9.37996C176.217 9.20506 176.629 9.18633 176.991 9.32999C177.36 9.47365 177.647 9.76097 177.791 10.1233L180.957 18.2371C181.239 18.9554 180.883 19.7674 180.164 20.0485C179.44 20.3295 178.634 19.9735 178.353 19.2552L175.742 12.5655L166.085 17.3376C165.598 17.575 165.017 17.5125 164.592 17.1752L156.185 10.4481L150.207 19.4051C149.908 19.8548 149.364 20.0922 148.833 20.011L138.19 18.387L137.49 29.1367C137.453 29.6801 137.109 30.1485 136.603 30.3484L126.572 34.2648L131.344 43.9214C131.588 44.4086 131.519 44.9895 131.182 45.4142L124.454 53.8216L133.411 59.7992C133.861 60.099 134.099 60.6362 134.017 61.1734L132.393 71.8169L143.143 72.5165C143.686 72.5539 144.155 72.8975 144.355 73.4034L148.271 83.4348L157.928 78.6627C158.415 78.4191 158.996 78.4878 159.421 78.8251L167.828 85.5523L173.806 76.5952C174.105 76.1455 174.643 75.9081 175.18 75.9893L185.823 77.6133L186.523 66.8637C186.56 66.3202 186.904 65.8518 187.41 65.6519L197.441 61.7355L192.669 52.0789C192.425 51.5917 192.494 51.0108 192.831 50.5861L199.559 42.1787L190.602 36.2011C190.152 35.9013 189.915 35.3641 189.996 34.8269L191.62 24.1834L184.605 23.7275C183.837 23.6775 183.25 23.0091 183.3 22.2409C183.35 21.4726 184.006 20.8917 184.786 20.9354L193.325 21.4913C193.718 21.5163 194.081 21.7037 194.324 22.0098C194.568 22.3158 194.674 22.7093 194.618 23.0966L192.9 34.371L202.388 40.6984C202.713 40.917 202.932 41.2605 202.994 41.6478C203.057 42.035 202.95 42.4286 202.707 42.7346L195.58 51.6354L200.633 61.8605C200.808 62.2102 200.827 62.6225 200.683 62.9848C200.539 63.3533 200.252 63.6406 199.89 63.7843L189.265 67.9318L188.528 79.3123C188.503 79.7058 188.315 80.0681 188.009 80.3117C187.703 80.5553 187.31 80.6615 186.923 80.6053L175.648 78.8876L169.321 88.3755C169.102 88.7003 168.759 88.919 168.371 88.9814C168.303 88.9939 168.228 89.0002 168.159 89.0002H168.134Z" fill="#262B62"/>
<path d="M148.564 68.7123C148.29 68.7123 148.009 68.6311 147.765 68.4625C147.128 68.019 146.972 67.1508 147.415 66.5137L174.286 27.8935C174.73 27.2564 175.598 27.1065 176.235 27.5437C176.872 27.9872 177.028 28.8554 176.585 29.4925L149.714 68.1127C149.445 68.5062 149.008 68.7123 148.564 68.7123Z" fill="#262B62"/>
<path d="M152.006 46.8069C149.626 46.8069 147.428 45.539 145.979 43.3216C143.43 39.4364 143.924 33.9273 147.103 30.773C148.471 29.4113 150.213 28.6617 152 28.6617C154.38 28.6617 156.572 29.9297 158.027 32.1471C160.576 36.0322 160.082 41.5414 156.909 44.6957C155.541 46.0574 153.799 46.8069 152.006 46.8069ZM152 31.46C150.938 31.46 149.926 31.9098 149.07 32.7592C146.878 34.9329 146.534 39.0679 148.315 41.7912C149.239 43.2029 150.588 44.0149 152.006 44.0149C153.068 44.0149 154.08 43.5652 154.936 42.7157C157.128 40.542 157.472 36.407 155.685 33.6837C154.761 32.272 153.412 31.46 151.994 31.46H152Z" fill="#262B62"/>
<path d="M172 67.3382C169.62 67.3382 167.422 66.0702 165.973 63.8528C163.424 59.9677 163.918 54.4523 167.097 51.3042C168.465 49.9425 170.208 49.1992 172 49.1992C174.38 49.1992 176.572 50.4672 178.028 52.6846C180.576 56.5697 180.083 62.0789 176.904 65.2332C175.536 66.5949 173.793 67.3444 172 67.3444V67.3382ZM171.994 51.9913C170.932 51.9913 169.92 52.441 169.065 53.2905C166.872 55.4642 166.529 59.5991 168.309 62.3162C169.233 63.7279 170.582 64.5399 172 64.5399C173.062 64.5399 174.074 64.0901 174.93 63.2407C177.122 61.067 177.466 56.932 175.686 54.2087C174.761 52.797 173.412 51.985 171.994 51.985V51.9913Z" fill="#262B62"/>
</g>
<defs>
<clipPath id="clip0_452_13">
<rect width="82" height="82" fill="white" transform="translate(121 7)"/>
</clipPath>
</defs>
</svg>
