<svg width="240" height="94" viewBox="0 0 240 94" fill="none" xmlns="http://www.w3.org/2000/svg">
<circle cx="47" cy="47" r="47" fill="#75A3F3"/>
<path d="M46.3663 60.52C44.5529 60.52 42.8929 60.0733 41.3863 59.18C39.8796 58.2733 38.6729 57.0667 37.7663 55.56C36.8596 54.04 36.4063 52.36 36.4063 50.52C36.4063 49.6533 36.5129 48.8 36.7262 47.96C36.9396 47.1067 37.2729 46.2933 37.7263 45.52L45.5263 32H52.4863L47.5263 40.56C48.5396 40.68 49.4929 40.94 50.3863 41.34C51.2929 41.7267 52.1129 42.2333 52.8463 42.86C53.5796 43.4733 54.2129 44.18 54.7463 44.98C55.2796 45.78 55.6863 46.6467 55.9662 47.58C56.2596 48.5133 56.4063 49.4933 56.4063 50.52C56.4063 51.8933 56.1463 53.1867 55.6263 54.4C55.1063 55.6 54.3863 56.66 53.4663 57.58C52.5463 58.5 51.4796 59.22 50.2663 59.74C49.0529 60.26 47.7529 60.52 46.3663 60.52ZM46.3663 54.52C47.1396 54.52 47.8263 54.3333 48.4263 53.96C49.0396 53.5733 49.5196 53.08 49.8663 52.48C50.2263 51.8667 50.4063 51.2267 50.4063 50.56C50.4063 49.8267 50.2329 49.1533 49.8863 48.54C49.5396 47.9267 49.0596 47.44 48.4463 47.08C47.8463 46.7067 47.1663 46.52 46.4063 46.52C45.6063 46.52 44.9063 46.7133 44.3063 47.1C43.7063 47.4867 43.2396 47.9867 42.9063 48.6C42.5729 49.2133 42.4063 49.8667 42.4063 50.56C42.4063 51.32 42.5929 52 42.9663 52.6C43.3529 53.1867 43.8463 53.6533 44.4463 54C45.0463 54.3467 45.6863 54.52 46.3663 54.52Z" fill="#202A63"/>
<mask id="mask0_452_12" style="mask-type:alpha" maskUnits="userSpaceOnUse" x="44" y="0" width="50" height="89">
<rect x="94" y="89" width="50" height="89" transform="rotate(180 94 89)" fill="#D9D9D9"/>
</mask>
<g mask="url(#mask0_452_12)">
<circle cx="44" cy="47" r="35" transform="rotate(180 44 47)" stroke="white" stroke-width="8"/>
</g>
<g clip-path="url(#clip0_452_12)">
<path d="M212.121 84C205.308 84 199.77 78.4037 199.77 71.5337C199.77 64.6637 205.314 59.061 212.121 59.061C218.928 59.061 224.472 64.6574 224.472 71.5337C224.472 78.4099 218.934 84 212.121 84ZM212.121 62.198C207.024 62.198 202.878 66.3827 202.878 71.5337C202.878 76.6846 207.024 80.8631 212.121 80.8631C217.218 80.8631 221.364 76.6783 221.364 71.5337C221.364 66.389 217.218 62.198 212.121 62.198Z" fill="#262B62"/>
<path d="M148.835 84C142.022 84 136.483 78.4037 136.483 71.5337C136.483 64.6637 142.022 59.061 148.835 59.061C155.648 59.061 161.186 64.6574 161.186 71.5337C161.186 78.4099 155.648 84 148.835 84ZM148.835 62.198C143.738 62.198 139.591 66.3827 139.591 71.5337C139.591 76.6846 143.738 80.8631 148.835 80.8631C153.932 80.8631 158.078 76.6783 158.078 71.5337C158.078 66.389 153.932 62.198 148.835 62.198Z" fill="#262B62"/>
<path d="M191.651 71.22H159.471C158.613 71.22 157.917 70.5173 157.917 69.6515C157.917 68.7857 158.613 68.083 159.471 68.083H191.651C192.509 68.083 193.205 68.7857 193.205 69.6515C193.205 70.5173 192.509 71.22 191.651 71.22Z" fill="#262B62"/>
<path d="M231.248 71.2199H222.918C222.06 71.2199 221.364 70.5173 221.364 69.6514C221.364 68.7856 222.06 68.083 222.918 68.083H231.248C231.652 68.0202 233.206 66.4768 234.915 60.3974C235.966 56.6832 236.612 52.8874 236.817 50.7229L213.321 44.8316C212.966 44.7438 212.662 44.5368 212.444 44.2419L199.558 26.6246H178.299C177.597 26.6246 176.975 26.1478 176.795 25.4577C176.472 24.2154 176.279 23.0296 176.092 21.8815C175.396 17.5336 175.011 15.1433 168.347 15.1433H134.053C130.939 15.1433 128.409 17.6968 128.409 20.84C128.409 20.8839 128.409 20.9216 128.409 20.9655L125.108 62.4427C125.139 65.5545 127.663 68.083 130.752 68.083H138.038C138.895 68.083 139.592 68.7856 139.592 69.6514C139.592 70.5173 138.895 71.2199 138.038 71.2199H130.752C125.929 71.2199 122 67.2548 122 62.3862C122 62.3423 122 62.3046 122 62.2607L125.301 20.771C125.338 15.9275 129.248 12 134.053 12H168.36C177.665 12 178.43 16.7682 179.169 21.3733C179.281 22.0634 179.393 22.7724 179.536 23.4814H200.341C200.832 23.4814 201.299 23.7198 201.591 24.1213L214.607 41.9205L238.813 47.9937C239.509 48.1694 239.994 48.7968 239.994 49.5183C239.994 52.1345 237.302 71.2199 231.242 71.2199H231.248Z" fill="#262B62"/>
<path d="M203.021 48.6901H178.312C177.876 48.6901 177.454 48.5019 177.162 48.1757C176.869 47.8494 176.72 47.4102 176.764 46.9711L178.162 32.2272C178.237 31.4242 178.908 30.8093 179.71 30.8093H196.027C196.624 30.8093 197.171 31.1544 197.432 31.7002C199.738 36.5814 204.171 45.9296 204.413 46.4189C204.655 46.9083 204.631 47.4855 204.345 47.9435C204.059 48.4078 203.561 48.6901 203.021 48.6901ZM180.021 45.5531H200.547C198.968 42.2279 196.127 36.2238 195.045 33.9463H181.121L180.021 45.5531Z" fill="#262B62"/>
<path d="M178.311 26.6183H168.894C168.036 26.6183 167.34 25.9156 167.34 25.0498C167.34 24.184 168.036 23.4813 168.894 23.4813H178.311C179.169 23.4813 179.866 24.184 179.866 25.0498C179.866 25.9156 179.169 26.6183 178.311 26.6183Z" fill="#262B62"/>
</g>
<defs>
<clipPath id="clip0_452_12">
<rect width="118" height="72" fill="white" transform="translate(122 12)"/>
</clipPath>
</defs>
</svg>
