<svg width="45" height="32" viewBox="0 0 45 32" fill="none" xmlns="http://www.w3.org/2000/svg">
<path fill-rule="evenodd" clip-rule="evenodd" d="M42.75 27C43.9926 27 45 28.0074 45 29.25C45 30.4926 43.9926 31.5 42.75 31.5H2.25C1.00736 31.5 0 30.4926 0 29.25C0 28.0074 1.00736 27 2.25 27H42.75ZM42.75 13.5C43.9926 13.5 45 14.5074 45 15.75C45 16.9926 43.9926 18 42.75 18H2.25C1.00736 18 0 16.9926 0 15.75C0 14.5074 1.00736 13.5 2.25 13.5H42.75ZM42.75 0C43.9926 0 45 1.00736 45 2.25C45 3.49264 43.9926 4.5 42.75 4.5H2.25C1.00736 4.5 0 3.49264 0 2.25C0 1.00736 1.00736 0 2.25 0H42.75Z" fill="#262B62"/>
</svg>
