<svg width="197" height="67" viewBox="0 0 197 67" fill="none" xmlns="http://www.w3.org/2000/svg">
<g clip-path="url(#clip0_404_68)">
<path d="M52.8167 65.4592L52.8822 65.3472C52.8963 65.3262 52.9056 65.3051 52.9173 65.2818L52.8167 65.4592Z" fill="#202A63"/>
<path d="M82.1882 14.8054L71.1833 33.8058L69.4084 36.8734L68.8816 37.7838L63.0958 47.7801C62.946 48.0392 62.8008 48.3054 62.6509 48.5645C62.5221 48.784 62.3887 48.9987 62.2061 49.1808C61.8103 49.566 61.2554 49.7901 60.7005 49.7644C60.4101 49.7504 60.1245 49.6711 59.8693 49.538C59.6281 49.4096 59.4103 49.2368 59.2371 49.0267C59.0404 48.7886 58.9116 48.5085 58.7571 48.2423C58.6704 48.0883 58.5791 47.9342 58.4901 47.7801L53.6901 39.4927L51.3837 35.5123L34.2816 5.97632L32.563 3.00218C32.3803 2.69169 32.2937 2.34385 32.2937 1.99367C32.2937 1.6435 32.3803 1.30033 32.563 0.989841L32.6262 0.877785L32.6309 0.873116C32.9891 0.34552 33.5956 -0.00231934 34.284 -0.00231934C34.9723 -0.00231934 35.5788 0.343186 35.937 0.873116H35.9417L36.588 1.99601L53.6948 31.5297L55.9965 35.5077L60.7965 43.7998L66.5823 33.8035L68.8886 29.8255L76.7864 16.1804H53.8095C53.5051 16.1804 53.2124 16.101 52.9572 15.954C52.702 15.8045 52.4842 15.5944 52.332 15.3283L52.2126 15.1229C52.03 14.7867 51.9317 14.3945 51.9808 13.9743C52.1026 12.9448 53.0345 12.2048 54.0694 12.2048H80.2073C81.2539 12.2048 82.1835 12.9681 82.2842 14.007C82.3123 14.2895 82.2725 14.5556 82.1929 14.8054H82.1882Z" fill="#75A3F3"/>
<path d="M50.803 49.9022C50.1989 49.9022 49.6112 49.5894 49.2857 49.0314L22.2534 2.69402C21.7663 1.85827 22.0497 0.789074 22.8879 0.303499C23.7262 -0.182075 24.7986 0.100399 25.2856 0.936148L52.3179 47.2735C52.8049 48.1093 52.5216 49.1785 51.6834 49.6641C51.4047 49.8251 51.1027 49.9022 50.803 49.9022Z" fill="#E7AD47"/>
<path d="M30.6436 53.8568C30.6223 53.8521 30.5987 53.8521 30.5774 53.8521H30.6294C30.6294 53.8521 30.6388 53.8521 30.6436 53.8568Z" fill="#202A63"/>
<path d="M32.2141 55.0077C32.1625 54.8887 32.0993 54.7743 32.0244 54.6692C32.001 54.6365 31.9799 54.6062 31.9542 54.5758C31.912 54.5245 31.8699 54.4755 31.8254 54.4288C31.816 54.4148 31.802 54.4007 31.7879 54.3914C31.7504 54.3517 31.7083 54.319 31.6662 54.2794C31.61 54.2373 31.5514 54.1953 31.4905 54.158C31.4554 54.1346 31.4203 54.1136 31.3828 54.0926C31.3454 54.0716 31.3102 54.0552 31.2704 54.0342C31.1932 53.9992 31.1136 53.9689 31.0316 53.9432C30.9543 53.9175 30.8818 53.8988 30.7998 53.8848C30.8373 53.8918 30.8794 53.9012 30.9192 53.9082C31.6006 54.0576 32.015 54.5058 32.2164 55.0147L32.2141 55.0077Z" fill="#202A63"/>
<path d="M52.9173 65.2818C52.908 65.3075 52.8963 65.3285 52.8822 65.3472L52.8167 65.4592L52.9173 65.2818Z" fill="#202A63"/>
<path d="M82.1882 14.8054C82.1391 14.9548 82.0735 15.0948 81.9915 15.2256L81.9353 15.3166L81.4343 16.185L69.4295 36.913L69.4084 36.8733L71.1833 33.8058L82.1882 14.8054Z" fill="#75A3F3"/>
<path d="M30.7974 53.8778C30.877 53.8918 30.9519 53.9128 31.0292 53.9362C30.9917 53.9222 30.9566 53.9105 30.9168 53.9012C30.8793 53.8942 30.8372 53.8848 30.7974 53.8778Z" fill="#202A63"/>
<path d="M52.8822 65.3495L52.8166 65.4615L52.9173 65.2841C52.908 65.3098 52.8962 65.3308 52.8822 65.3495ZM56.6777 55.3882C55.7575 54.8536 54.5798 55.1618 54.0436 56.0769L53.5589 56.9033L51.8473 59.8214L51.0535 61.1917L51.0465 61.1847L50.8685 60.8906L33.3871 30.6962L31.0316 26.6272L26.1262 18.153C26.0325 17.9966 25.9412 17.8378 25.8499 17.6814C25.6953 17.413 25.5595 17.1258 25.3582 16.8807C25.1825 16.6683 24.9578 16.4885 24.7119 16.3601C24.4497 16.2247 24.157 16.1407 23.862 16.129C23.2977 16.101 22.724 16.3321 22.3213 16.7243C22.1363 16.9087 21.9981 17.1305 21.8694 17.3546C21.7125 17.6207 21.5673 17.8939 21.4128 18.1553L15.4959 28.3711L13.1403 32.4354L0.86867 53.6327L0.355887 54.5151L0.304375 54.6131C0.0866176 54.9703 -0.0351391 55.3975 0.00934891 55.8551C0.110032 56.9196 1.06301 57.6993 2.13307 57.6993H30.6288C31.5514 57.5663 32.1929 56.971 32.3334 56.1562C32.3451 56.1072 32.3498 56.0582 32.3545 56.0068C32.3615 55.9695 32.3662 55.9298 32.3662 55.8924C32.3685 55.8644 32.3732 55.8364 32.3685 55.8084C32.3685 55.5539 32.324 55.2831 32.221 55.024C32.2163 55.0193 32.214 55.0123 32.214 55.01C32.1625 54.8909 32.0993 54.7766 32.0243 54.6715C32.0009 54.6388 31.9798 54.6085 31.9541 54.5781C31.9166 54.5268 31.8698 54.4777 31.8253 54.4311C31.8159 54.417 31.8019 54.403 31.7878 54.3937C31.7504 54.354 31.7082 54.3167 31.6661 54.2816C31.6099 54.2396 31.5514 54.1976 31.4905 54.1603C31.4554 54.1369 31.4202 54.1159 31.3828 54.0949C31.3453 54.0739 31.3102 54.0575 31.2704 54.0365C31.1931 54.0015 31.1135 53.9712 31.0316 53.9455C30.9543 53.9198 30.8817 53.9011 30.7997 53.8871C30.7506 53.8801 30.6991 53.8684 30.6452 53.8661C30.6241 53.8614 30.6007 53.8614 30.5796 53.8614H5.58206L15.4982 36.7356L17.8537 32.6712L23.7706 22.4531L28.676 30.9297L31.0339 34.7699L48.52 64.9666L48.6558 65.2001L48.6769 65.2374L49.1827 66.1082C49.3653 66.3813 49.6135 66.6078 49.8992 66.7619C50.1895 66.9159 50.5196 67.007 50.8709 67.007C51.5757 67.007 52.1938 66.6568 52.5591 66.1175L52.5661 66.1059L52.6715 65.9238L52.6996 65.8724L56.0994 60.1949L57.3731 58.0262C57.5511 57.7227 57.6401 57.3865 57.6401 57.0574C57.6401 56.399 57.2959 55.757 56.6824 55.3952L56.6777 55.3882Z" fill="#202A63"/>
<path d="M90.0251 30.3671H84.052V27.3533H99.3044V30.3671H93.3266V49.7878H90.0274V30.3671H90.0251Z" fill="#202A63"/>
<path d="M105.697 27.351H114.212C116.029 27.351 117.509 27.8435 118.659 28.8287C120.04 29.9469 120.759 31.5414 120.82 33.6144C120.78 36.6609 119.378 38.7339 116.61 39.8312L121.656 49.7878H117.734L113.222 40.2H108.996V49.7878H105.697V27.351ZM108.996 37.1862H114.002C115.24 37.1652 116.17 36.7963 116.79 36.075C117.399 35.4073 117.704 34.5832 117.704 33.6051C117.683 32.4331 117.32 31.5834 116.61 31.0581C116.051 30.5959 115.24 30.3648 114.182 30.3648H108.996V37.1838V37.1862Z" fill="#202A63"/>
<path d="M128.547 27.351H142.472V30.5492H131.846V36.9691H140.915V39.9829H131.846V46.5872H142.472V49.7854H128.547V27.351Z" fill="#202A63"/>
<path d="M164.402 43.5196C163.924 45.5997 163.011 47.1965 161.665 48.3124C160.279 49.4189 158.64 49.9722 156.746 49.9722C155.032 49.9302 153.603 49.5006 152.456 48.6789C151.29 47.8898 150.442 46.977 149.915 45.9405C149.756 45.602 149.611 45.2798 149.482 44.9717C149.363 44.6542 149.262 44.2527 149.183 43.7718C149.033 42.8683 148.958 41.1361 148.958 38.5705C148.958 36.0049 149.033 34.2213 149.183 33.3389C149.342 32.4565 149.585 31.7444 149.915 31.2005C150.445 30.164 151.29 29.2419 152.456 28.4295C153.601 27.6077 155.032 27.1875 156.746 27.1665C158.848 27.1875 160.562 27.8272 161.887 29.0878C163.213 30.3578 164.051 31.9312 164.4 33.8058H160.897C160.628 32.9024 160.138 32.1296 159.429 31.4923C158.691 30.8854 157.792 30.5725 156.734 30.5515C155.954 30.5725 155.287 30.7313 154.727 31.0301C154.158 31.3382 153.699 31.7234 153.35 32.1857C152.922 32.6689 152.636 33.2899 152.496 34.0509C152.337 34.8517 152.257 36.3597 152.257 38.5682C152.257 40.7766 152.337 42.2754 152.496 43.0551C152.636 43.8371 152.92 44.4698 153.35 44.953C153.699 45.4152 154.158 45.7911 154.73 46.0782C155.289 46.4167 155.959 46.5872 156.736 46.5872C158.593 46.5872 159.981 45.5647 160.902 43.5173H164.402V43.5196Z" fill="#202A63"/>
<path d="M170.111 38.5705C170.111 35.9582 170.186 34.212 170.335 33.3272C170.495 32.4424 170.738 31.7281 171.068 31.1842C171.595 30.1523 172.443 29.2325 173.609 28.4248C174.754 27.6077 176.184 27.1875 177.898 27.1688C179.631 27.1898 181.076 27.61 182.232 28.4318C183.377 29.2419 184.204 30.1663 184.712 31.2028C185.08 31.7468 185.335 32.4588 185.473 33.3412C185.602 34.2237 185.667 35.9675 185.667 38.5728C185.667 41.1781 185.602 42.8706 185.473 43.7741C185.333 44.6775 185.08 45.4012 184.712 45.9428C184.204 46.9793 183.377 47.8921 182.232 48.6812C181.076 49.5029 179.633 49.9325 177.898 49.9745C176.184 49.9325 174.756 49.5029 173.611 48.6812C172.445 47.8921 171.6 46.9793 171.071 45.9428C170.911 45.6043 170.766 45.2822 170.637 44.974C170.518 44.6565 170.417 44.255 170.338 43.7741C170.188 42.8706 170.113 41.1384 170.113 38.5728L170.111 38.5705ZM173.41 38.5705C173.41 40.7813 173.489 42.2777 173.649 43.0574C173.789 43.8395 174.072 44.4721 174.503 44.9553C174.852 45.4176 175.311 45.7934 175.88 46.0806C176.44 46.4191 177.107 46.5895 177.887 46.5895C178.666 46.5895 179.359 46.4191 179.938 46.0806C180.486 45.7934 180.926 45.4176 181.256 44.9553C181.685 44.4721 181.98 43.8395 182.139 43.0574C182.289 42.2753 182.364 40.7813 182.364 38.5705C182.364 36.3597 182.289 34.854 182.139 34.0532C181.98 33.2922 181.685 32.6712 181.256 32.188C180.926 31.7258 180.488 31.3406 179.938 31.0324C179.359 30.7336 178.676 30.5749 177.887 30.5538C177.107 30.5749 176.44 30.7336 175.88 31.0324C175.311 31.3406 174.852 31.7258 174.503 32.188C174.075 32.6712 173.789 33.2922 173.649 34.0532C173.489 34.8563 173.41 36.3621 173.41 38.5705Z" fill="#202A63"/>
<path d="M193.701 27.351H197V49.7878H193.701V27.351Z" fill="#202A63"/>
</g>
<defs>
<clipPath id="clip0_404_68">
<rect width="197" height="67" fill="white"/>
</clipPath>
</defs>
</svg>
